<svg xmlns="http://www.w3.org/2000/svg" viewBox="0 0 64 64">
  <rect width="64" height="64" rx="14" fill="#C8963E"/>
  <g fill="none" stroke="#3D2E1C" stroke-width="3.4" stroke-linecap="round" stroke-linejoin="round">
    <path d="M32 11c-1.1-2-3.8-1.1-3.8 0.9 0 1.7 2.4 3 3.8 4 1.4-1 3.8-2.3 3.8-4 0-2-2.7-2.9-3.8-0.9z"/>
    <path d="M32 16.2c-0.6-1.6-0.3-3 0-4"/>
    <path d="M32 16.2 A4 1.8 0 1 1 30.5 19.6 A7 2.2 0 1 1 30.5 24.6 A10 2.6 0 1 1 31 29.8"/>
    <path d="M17.5 33 L46.5 33 L43.7 52.5 C43.5 53.8 42.4 54.8 41 54.8 L23 54.8 C21.6 54.8 20.5 53.8 20.3 52.5 Z"/>
  </g>
</svg>
